<svg width="219" height="121" viewBox="0 0 219 121" fill="none" xmlns="http://www.w3.org/2000/svg">
<g clip-path="url(#clip0_18_77)">
<path d="M81.8804 55.1646C76.6118 55.1646 73.7898 53.3088 71.5233 51.8272C69.5269 50.5252 67.9658 49.4925 64.5585 49.4925C61.1512 49.4925 59.5901 50.5252 57.5937 51.8272C55.3272 53.3088 52.4902 55.1646 47.2366 55.1646C41.983 55.1646 39.1461 53.3088 36.8796 51.8272C34.8832 50.5252 30.3201 49.4925 26.9277 49.4925V31.7728C32.1813 31.7728 38.0053 33.6286 40.2869 35.1102C42.2833 36.4122 43.8443 37.4449 47.2517 37.4449C50.659 37.4449 52.2201 36.4122 54.2164 35.1102C56.483 33.6286 59.3199 31.7728 64.5735 31.7728C69.8271 31.7728 72.6641 33.6286 74.9306 35.1102C76.927 36.4122 78.4881 37.4449 81.8954 37.4449C85.3027 37.4449 86.8638 36.4122 88.8602 35.1102C90.6614 33.9279 92.8079 32.5361 96.2152 31.9973V27.9415C94.6541 28.3456 93.5434 29.0789 92.2525 29.932C89.9859 31.4136 87.149 33.2694 81.8954 33.2694C76.6418 33.2694 73.8048 31.4136 71.5383 29.932C69.5419 28.6299 67.9809 27.5973 64.5735 27.5973C61.1662 27.5973 59.6051 28.6299 57.6088 29.932C55.3422 31.4136 52.5053 33.2694 47.2517 33.2694C41.9981 33.2694 39.1611 31.4136 36.8946 29.932C34.8982 28.6299 33.3371 27.5973 29.9298 27.5973H26.9277V1.55646C26.9277 0.703401 27.6482 0 28.5639 0H29.9298C35.1834 0 38.0203 1.85578 40.2869 3.33741C42.2833 4.63946 43.8443 5.67211 47.2517 5.67211C50.659 5.67211 52.2201 4.63946 54.2164 3.33741C56.483 1.85578 59.3199 0 64.5735 0C69.8271 0 72.6641 1.85578 74.9306 3.33741C76.927 4.63946 78.4881 5.67211 81.8954 5.67211C85.3027 5.67211 86.8638 4.63946 88.8602 3.33741C91.1267 1.85578 96.9507 0 102.219 0V9.02449C98.827 9.02449 94.2488 10.0571 92.2525 11.3592C89.9859 12.8408 87.149 14.6966 81.8954 14.6966C76.6418 14.6966 73.8048 12.8408 71.5383 11.3592C69.5419 10.0571 67.9809 9.02449 64.5735 9.02449C61.1662 9.02449 59.6051 10.0571 57.6088 11.3592C55.3422 12.8408 52.5053 14.6966 47.2517 14.6966C41.9981 14.6966 39.1611 12.8408 36.8946 11.3592C35.6037 10.5061 34.4929 9.78776 32.9318 9.36871V13.4993C36.3542 14.0381 38.5007 15.4449 40.2869 16.6122C42.2833 17.9143 43.8443 18.9469 47.2517 18.9469C50.659 18.9469 52.2201 17.9143 54.2164 16.6122C56.483 15.1306 59.3199 13.2748 64.5735 13.2748C69.8271 13.2748 72.6641 15.1306 74.9306 16.6122C76.927 17.9143 78.4881 18.9469 81.8954 18.9469C85.3027 18.9469 86.8638 17.9143 88.8602 16.6122C91.1267 15.1306 93.9637 13.2748 99.2173 13.2748H102.219C102.219 13.2748 102.219 22.5837 102.219 23.4517V49.4925H99.2173C95.8249 49.4925 94.2488 50.5252 92.2525 51.8272C89.9859 53.3088 87.149 55.1646 81.8954 55.1646H81.8804Z" fill="#FFD212"/>
<path d="M0 0H17.1267V55.1646H0V0Z" fill="#FFD212"/>
<path d="M111.707 0H157.518V11.7782H128.834V20.5483H155.432V31.8027H128.834V42.683H158.344V55.1796H111.692V0H111.707Z" fill="#FFD212"/>
<path d="M167.035 0H219V13.619H201.558V55.1646H184.461V13.619H167.02V0H167.035Z" fill="#FFD212"/>
<path d="M0 64.8939H17.0967V106.469H43.785V120.058H0V64.8939Z" fill="#FFD212"/>
<path d="M85.5583 110.943H66.15L63.4482 120.042H45.9912L66.7805 64.8776H85.4232L106.212 120.042H88.3052L85.5433 110.943H85.5583ZM82.0159 99.015L75.9067 79.185L69.8576 99.015H82.0009H82.0159Z" fill="#FFD212"/>
<path d="M111.706 64.8939H143.708C149.037 64.8939 153.134 66.2109 155.986 68.8449C158.838 71.4789 160.264 74.7415 160.264 78.6326C160.264 81.8952 159.244 84.6939 157.202 87.0286C155.836 88.585 153.855 89.8122 151.243 90.7102C155.221 91.668 158.148 93.2993 160.024 95.619C161.9 97.9388 162.831 100.857 162.831 104.374C162.831 107.233 162.171 109.807 160.835 112.082C159.499 114.371 157.683 116.167 155.356 117.499C153.915 118.322 151.753 118.936 148.872 119.31C145.029 119.819 142.462 120.058 141.216 120.058H111.706V64.8939ZM128.953 86.5347H136.383C139.055 86.5347 140.901 86.0707 141.952 85.1578C143.002 84.2449 143.513 82.9129 143.513 81.1918C143.513 79.5905 142.987 78.3333 141.952 77.4354C140.901 76.5374 139.085 76.0735 136.503 76.0735H128.953V86.5347ZM128.953 108.205H137.674C140.616 108.205 142.687 107.682 143.903 106.649C145.104 105.601 145.719 104.21 145.719 102.458C145.719 100.827 145.119 99.5252 143.933 98.5224C142.732 97.5347 140.646 97.0408 137.644 97.0408H128.968V108.22L128.953 108.205Z" fill="#FFD212"/>
<path d="M168.805 101.801L185.077 100.783C185.422 103.417 186.142 105.422 187.223 106.799C188.979 109.029 191.501 110.152 194.773 110.152C197.22 110.152 199.096 109.583 200.417 108.446C201.738 107.308 202.398 105.976 202.398 104.48C202.398 102.983 201.768 101.771 200.507 100.648C199.246 99.5259 196.334 98.4483 191.756 97.4456C184.266 95.7694 178.907 93.5395 175.71 90.7409C172.483 87.9572 170.877 84.4102 170.877 80.0851C170.877 77.2565 171.702 74.5776 173.354 72.0483C175.005 69.534 177.481 67.5436 180.784 66.1068C184.086 64.6701 188.634 63.9368 194.383 63.9368C201.453 63.9368 206.841 65.2538 210.549 67.8728C214.257 70.4919 216.463 74.6674 217.169 80.3844L201.047 81.3272C200.612 78.8429 199.727 77.032 198.346 75.9096C196.98 74.7871 195.088 74.2184 192.672 74.2184C190.69 74.2184 189.189 74.6374 188.184 75.4755C187.178 76.3136 186.668 77.3313 186.668 78.5436C186.668 79.4266 187.088 80.2048 187.913 80.9082C188.724 81.6415 190.63 82.315 193.647 82.9436C201.123 84.5449 206.466 86.1762 209.708 87.8225C212.936 89.4687 215.292 91.5041 216.763 93.9436C218.234 96.383 218.97 99.0919 218.97 102.115C218.97 105.647 217.994 108.91 216.028 111.903C214.061 114.881 211.33 117.156 207.802 118.697C204.275 120.239 199.847 121.017 194.473 121.017C185.062 121.017 178.547 119.206 174.93 115.599C171.312 111.993 169.256 107.398 168.775 101.831L168.805 101.801Z" fill="#FFD212"/>
</g>
<defs>
<clipPath id="clip0_18_77">
<rect width="219" height="121" fill="white"/>
</clipPath>
</defs>
</svg>
