<svg width="204" height="113" viewBox="0 0 204 113" fill="none" xmlns="http://www.w3.org/2000/svg">
<g clip-path="url(#clip0_6_7)">
<path d="M76.2723 51.5174C71.3645 51.5174 68.7359 49.7843 66.6246 48.4006C64.7649 47.1847 63.3108 46.2203 60.1368 46.2203C56.9629 46.2203 55.5087 47.1847 53.6491 48.4006C51.5378 49.7843 48.8951 51.5174 44.0014 51.5174C39.1076 51.5174 36.465 49.7843 34.3537 48.4006C32.4941 47.1847 28.2435 46.2203 25.0835 46.2203V29.6721C29.9773 29.6721 35.4023 31.4052 37.5276 32.7889C39.3873 34.0048 40.8414 34.9692 44.0154 34.9692C47.1893 34.9692 48.6435 34.0048 50.5031 32.7889C52.6144 31.4052 55.257 29.6721 60.1508 29.6721C65.0446 29.6721 67.6872 31.4052 69.7985 32.7889C71.6581 34.0048 73.1123 34.9692 76.2862 34.9692C79.4602 34.9692 80.9143 34.0048 82.774 32.7889C84.4518 31.6847 86.4513 30.3849 89.6252 29.8818V26.0941C88.1711 26.4715 87.1364 27.1563 85.9339 27.953C83.8226 29.3367 81.18 31.0698 76.2862 31.0698C71.3925 31.0698 68.7498 29.3367 66.6385 27.953C64.7789 26.737 63.3248 25.7727 60.1508 25.7727C56.9768 25.7727 55.5227 26.737 53.6631 27.953C51.5518 29.3367 48.9091 31.0698 44.0154 31.0698C39.1216 31.0698 36.479 29.3367 34.3677 27.953C32.508 26.737 31.0539 25.7727 27.8799 25.7727H25.0835V1.45356C25.0835 0.656895 25.7546 0 26.6076 0H27.8799C32.7737 0 35.4163 1.73309 37.5276 3.11676C39.3873 4.33272 40.8414 5.29709 44.0154 5.29709C47.1893 5.29709 48.6435 4.33272 50.5031 3.11676C52.6144 1.73309 55.257 0 60.1508 0C65.0446 0 67.6872 1.73309 69.7985 3.11676C71.6581 4.33272 73.1123 5.29709 76.2862 5.29709C79.4602 5.29709 80.9143 4.33272 82.774 3.11676C84.8853 1.73309 90.3104 0 95.2181 0V8.42783C92.0581 8.42783 87.7936 9.39221 85.9339 10.6082C83.8226 11.9918 81.18 13.7249 76.2862 13.7249C71.3925 13.7249 68.7498 11.9918 66.6385 10.6082C64.7789 9.39221 63.3248 8.42783 60.1508 8.42783C56.9768 8.42783 55.5227 9.39221 53.6631 10.6082C51.5518 11.9918 48.9091 13.7249 44.0154 13.7249C39.1216 13.7249 36.479 11.9918 34.3677 10.6082C33.1652 9.8115 32.1305 9.14063 30.6764 8.74929V12.6068C33.8643 13.11 35.8638 14.4237 37.5276 15.5139C39.3873 16.7299 40.8414 17.6942 44.0154 17.6942C47.1893 17.6942 48.6435 16.7299 50.5031 15.5139C52.6144 14.1302 55.257 12.3972 60.1508 12.3972C65.0446 12.3972 67.6872 14.1302 69.7985 15.5139C71.6581 16.7299 73.1123 17.6942 76.2862 17.6942C79.4602 17.6942 80.9143 16.7299 82.774 15.5139C84.8853 14.1302 87.5279 12.3972 92.4217 12.3972H95.2181C95.2181 12.3972 95.2181 21.0905 95.2181 21.9012V46.2203H92.4217C89.2617 46.2203 87.7936 47.1847 85.9339 48.4006C83.8226 49.7843 81.18 51.5174 76.2862 51.5174H76.2723Z" fill="#0062F4"/>
<path d="M0 0H15.9537V51.5174H0V0Z" fill="#FFD212"/>
<path d="M104.055 0H146.729V10.9995H120.009V19.1897H144.786V29.7001H120.009V39.861H147.498V51.5314H104.042V0H104.055Z" fill="#FFD212"/>
<path d="M155.594 0H204V12.7186H187.753V51.5174H171.827V12.7186H155.58V0H155.594Z" fill="#FFD212"/>
<path d="M0 60.6033H15.9257V99.43H40.786V112.121H0V60.6033Z" fill="#FFD212"/>
<path d="M79.6978 103.608H61.6189L59.1021 112.106H42.8408L62.2061 60.5881H79.572L98.9373 112.106H82.2566L79.6839 103.608H79.6978ZM76.3981 92.4685L70.7073 73.9497L65.0725 92.4685H76.3841H76.3981Z" fill="#FFD212"/>
<path d="M104.055 60.6033H133.865C138.828 60.6033 142.646 61.8332 145.302 64.2931C147.959 66.7529 149.287 69.7998 149.287 73.4337C149.287 76.4806 148.336 79.0942 146.435 81.2745C145.162 82.7281 143.317 83.8741 140.884 84.7127C144.589 85.6072 147.316 87.1307 149.063 89.297C150.811 91.4634 151.678 94.1888 151.678 97.4733C151.678 100.143 151.063 102.547 149.818 104.671C148.574 106.81 146.882 108.487 144.715 109.731C143.373 110.499 141.359 111.072 138.675 111.422C135.095 111.897 132.704 112.121 131.544 112.121H104.055V60.6033ZM120.12 80.8133H127.041C129.53 80.8133 131.25 80.38 132.229 79.5275C133.208 78.6749 133.683 77.431 133.683 75.8237C133.683 74.3282 133.194 73.1542 132.229 72.3156C131.25 71.477 129.558 71.0437 127.153 71.0437H120.12V80.8133ZM120.12 101.051H128.244C130.984 101.051 132.914 100.562 134.046 99.5977C135.165 98.6194 135.738 97.3195 135.738 95.6843C135.738 94.1608 135.179 92.9449 134.074 92.0085C132.956 91.086 131.012 90.6248 128.216 90.6248H120.134V101.065L120.12 101.051Z" fill="#FFD212"/>
<path d="M157.243 95.07L172.4 94.1196C172.722 96.5795 173.393 98.4523 174.399 99.7382C176.035 101.821 178.384 102.869 181.432 102.869C183.712 102.869 185.459 102.338 186.69 101.276C187.92 100.213 188.535 98.9695 188.535 97.5718C188.535 96.1742 187.948 95.0421 186.774 93.9938C185.599 92.9456 182.887 91.9393 178.622 91.0029C171.645 89.4375 166.653 87.355 163.675 84.7414C160.669 82.1418 159.173 78.8293 159.173 74.7901C159.173 72.1486 159.942 69.6468 161.48 67.2847C163.018 64.9367 165.325 63.0778 168.401 61.7361C171.477 60.3943 175.714 59.7095 181.069 59.7095C187.655 59.7095 192.674 60.9394 196.128 63.3853C199.581 65.8312 201.637 69.7306 202.294 75.0696L187.277 75.9502C186.872 73.6301 186.047 71.9389 184.76 70.8907C183.488 69.8424 181.726 69.3113 179.475 69.3113C177.629 69.3113 176.231 69.7027 175.294 70.4854C174.357 71.268 173.882 72.2184 173.882 73.3505C173.882 74.1751 174.274 74.9019 175.043 75.5588C175.798 76.2437 177.573 76.8726 180.384 77.4596C187.347 78.9551 192.325 80.4786 195.345 82.016C198.351 83.5534 200.546 85.4542 201.916 87.7324C203.287 90.0105 203.972 92.5403 203.972 95.3635C203.972 98.662 203.063 101.709 201.231 104.504C199.4 107.285 196.855 109.41 193.569 110.849C190.283 112.289 186.158 113.016 181.153 113.016C172.386 113.016 166.318 111.325 162.948 107.956C159.578 104.588 157.663 100.297 157.215 95.098L157.243 95.07Z" fill="#FFD212"/>
</g>
<defs>
<clipPath id="clip0_6_7">
<rect width="204" height="113" fill="white"/>
</clipPath>
</defs>
</svg>
