<svg width="65" height="65" viewBox="0 0 65 65" fill="none" xmlns="http://www.w3.org/2000/svg">
<g clip-path="url(#clip0_6_123)">
<path fill-rule="evenodd" clip-rule="evenodd" d="M20.2771 39.7449L6.6867 33.8787C5.25941 33.2612 4.35212 31.8366 4.39816 30.282C4.44691 28.7274 5.43546 27.3597 6.89796 26.8316C16.8186 23.2403 46.8242 12.3745 55.5179 9.22469C56.8342 8.75073 58.3048 9.03782 59.3448 9.9722C60.3848 10.9093 60.8236 12.342 60.4904 13.7016C58.5567 21.5232 52.5768 45.7303 50.7513 53.1187C50.4345 54.4051 49.4676 55.4316 48.2055 55.827C46.9407 56.2251 45.5621 55.9326 44.5682 55.0578L35.3463 46.9572L28.1286 53.877C27.0913 54.8709 25.5854 55.1932 24.2313 54.7139C22.8798 54.2318 21.9157 53.0293 21.7397 51.6047L20.2771 39.7449ZM46.445 50.2207L55.2688 14.5005L11.1284 30.4851L22.7797 35.5172C24.0147 36.0507 24.8759 37.1991 25.0411 38.5343L26.314 48.8639L31.6467 43.7532L31.1754 43.347C30.3602 42.6509 29.8809 41.6434 29.8511 40.5737C29.8186 39.5039 30.2438 38.472 31.0157 37.7299C33.9109 34.9539 41.635 27.552 41.635 27.552C42.6073 26.6203 44.1511 26.6528 45.0827 27.6251C46.0117 28.5947 45.9792 30.1384 45.0096 31.0701L35.2542 40.422L36.8602 41.7978L46.445 50.2207Z" fill="white"/>
</g>
<defs>
<clipPath id="clip0_6_123">
<rect width="65" height="65" fill="white"/>
</clipPath>
</defs>
</svg>
