<svg width="635" height="731" viewBox="0 0 635 731" fill="none" xmlns="http://www.w3.org/2000/svg">
<path d="M3.33749e-05 543.793C3.60269e-05 483.123 21.362 450.628 38.417 424.528C53.4048 401.54 65.2917 383.563 65.2917 344.327C65.2917 305.091 53.4048 287.115 38.417 264.126C21.362 238.026 4.81683e-05 205.358 5.08127e-05 144.862C5.34571e-05 84.3654 21.362 51.6973 38.417 25.5975C53.4048 2.60882 65.2917 -49.9366 65.2917 -89L269.263 -89C269.263 -28.5036 247.902 38.561 230.847 64.8337C215.859 87.8224 203.972 105.798 203.972 145.035C203.972 184.271 215.859 202.247 230.847 225.236C247.902 251.336 269.263 284.004 269.263 344.5C269.263 404.996 247.902 437.664 230.847 463.764C215.859 486.753 203.972 504.729 203.972 543.965C203.972 583.202 215.859 601.178 230.846 624.166C244.456 644.908 260.478 669.625 266.679 708.861L313.365 708.861C308.714 690.885 300.273 678.095 290.453 663.23C273.398 637.13 252.036 604.462 252.036 543.965C252.036 483.469 273.398 450.801 290.453 424.701C305.441 401.712 317.328 383.736 317.328 344.5C317.328 305.264 305.441 287.288 290.453 264.299C273.398 238.199 252.036 205.531 252.036 145.035C252.036 84.5383 273.398 51.8702 290.453 25.7703C305.441 2.78169 317.328 -15.1944 317.328 -54.4306L317.328 -89L617.084 -89C626.903 -89 635 -80.7033 635 -70.1597L635 -54.4306C635 6.0658 613.638 38.7339 596.583 64.8337C581.595 87.8224 569.708 105.798 569.708 145.035C569.708 184.271 581.595 202.247 596.583 225.236C613.638 251.336 635 284.004 635 344.5C635 404.996 613.638 437.664 596.583 463.764C581.595 486.753 569.708 504.729 569.708 543.965C569.708 583.202 581.595 601.178 596.583 624.166C613.638 650.266 635 717.331 635 778L531.119 778C531.119 738.937 519.232 686.218 504.244 663.23C487.189 637.13 465.827 604.462 465.827 543.965C465.827 483.469 487.189 450.801 504.244 424.701C519.232 401.712 531.119 383.736 531.119 344.5C531.119 305.264 519.232 287.288 504.244 264.299C487.189 238.199 465.827 205.531 465.827 145.035C465.827 84.5383 487.189 51.8702 504.244 25.7703C514.064 10.9055 522.333 -1.88517 527.157 -19.8612L479.609 -19.8612C473.407 19.5479 457.214 44.2649 443.776 64.8337C428.789 87.8224 416.902 105.798 416.902 145.035C416.902 184.271 428.789 202.247 443.776 225.236C460.832 251.336 482.193 284.004 482.193 344.5C482.193 404.996 460.832 437.664 443.776 463.764C428.789 486.753 416.902 504.729 416.902 543.965C416.902 583.202 428.789 601.178 443.776 624.166C460.832 650.266 482.193 682.934 482.193 743.431L482.193 778C482.193 778 375.039 778 365.047 778L65.2917 778L65.2917 743.431C65.2917 704.367 53.4048 686.218 38.417 663.23C21.362 637.13 3.0723e-05 604.462 3.33674e-05 543.965L3.33749e-05 543.793Z" fill="#F0ECDB"/>
</svg>
