<svg width="66" height="66" viewBox="0 0 66 66" fill="none" xmlns="http://www.w3.org/2000/svg">
<path fill-rule="evenodd" clip-rule="evenodd" d="M19.5328 34.2319C18.4674 32.3022 17.9237 30.4919 17.9237 28.8105C17.9237 26.8996 18.4328 25.2936 19.4323 23.8951C19.7433 23.4556 20.0924 23.0444 20.4757 22.6662L20.6266 22.5091L20.6517 22.4839L20.6203 22.5122L20.6643 22.4713C20.9521 22.1561 21.3012 21.9028 21.6903 21.7272C22.0794 21.5516 22.5003 21.4572 22.9271 21.4499C23.5714 21.4499 24.0114 21.4562 24.3948 21.4751H24.5425C25.3754 21.4751 25.8185 21.7516 26.2805 22.6945L26.3371 22.8108L26.4 22.9491L27.4245 25.3596C28.2354 27.2705 28.6251 28.1725 28.7131 28.3453C29.0274 28.9488 29.0463 29.4233 28.776 29.9482L28.666 30.1619L28.5465 30.3976C28.3928 30.7016 28.1994 30.9837 27.9714 31.2368L27.5911 31.6799C27.2768 32.0508 27.126 32.2236 26.994 32.3619L26.2491 33.1476L26.8305 34.0622C27.9085 35.7593 29.2191 37.3213 30.6805 38.5848C31.8937 39.6282 33.132 40.4705 34.4551 41.1493C34.9328 41.3976 35.8851 41.8219 36.6237 42.1393L37.5194 42.5228L38.17 41.7905C39.0531 40.7973 39.9614 39.7099 40.2945 39.2291C40.832 38.4496 41.2814 38.3428 42.3908 38.7325C42.8937 38.9116 45.4803 40.1059 47.5923 41.1273L48.2083 41.4165C48.4377 41.5265 48.5728 41.5956 48.6954 41.6679C48.9468 41.8188 49.082 41.9445 49.1857 42.1079C49.4937 42.6045 49.3837 44.2419 48.7771 45.8919C48.2083 47.4288 45.4645 49.2893 43.3965 49.5879C41.58 49.8519 40.0431 49.7639 38.4874 49.2862C37.0132 48.8468 35.5634 48.3296 34.144 47.7368C31.5668 46.6588 29.062 45.0182 26.6514 42.8528C24.7327 41.126 22.997 39.206 21.472 37.1233L21.076 36.5891C20.5011 35.8447 19.9851 35.0566 19.5328 34.2319ZM9.88426 57.7688L19.5674 54.8616C24.7488 58.3591 31.0473 59.801 37.2342 58.9059C43.4212 58.0108 49.0528 54.8431 53.0305 50.0205C57.0083 45.198 59.0468 39.0666 58.7485 32.8223C58.4502 26.5781 55.8365 20.6689 51.4171 16.2475C46.9978 11.8261 41.0898 9.20965 34.8457 8.90845C28.6016 8.60725 22.4693 10.643 17.6449 14.6185C12.8205 18.594 9.6501 24.2241 8.75217 30.4106C7.85424 36.5972 9.29317 42.8963 12.7883 48.0793L9.88426 57.7688ZM5.96827 48.9405C3.49317 44.3578 2.20116 39.2297 2.20941 34.0213C2.20941 16.6633 16.28 2.59277 33.638 2.59277C50.9928 2.59277 65.0665 16.6633 65.0665 34.0213C65.0665 51.3793 50.9928 65.4499 33.638 65.4499C28.4248 65.4583 23.2921 64.1641 18.7063 61.6848L6.65969 65.2991C6.06161 65.4787 5.42602 65.4931 4.82045 65.3405C4.21487 65.188 3.66192 64.8743 3.22034 64.4327C2.77875 63.9911 2.46503 63.4382 2.31249 62.8326C2.15994 62.227 2.17428 61.5914 2.35398 60.9933L5.96827 48.9405Z" fill="white"/>
</svg>
